<?xml version="1.0" encoding="utf-8"?>
<!-- Generator: Adobe Illustrator 19.2.0, SVG Export Plug-In . SVG Version: 6.00 Build 0)  -->
<!DOCTYPE svg PUBLIC "-//W3C//DTD SVG 1.1//EN" "http://www.w3.org/Graphics/SVG/1.1/DTD/svg11.dtd">
<svg version="1.1" id="Layer_1" xmlns="http://www.w3.org/2000/svg" xmlns:xlink="http://www.w3.org/1999/xlink" x="0px" y="0px"
	 viewBox="0 0 440.6 64.3" style="enable-background:new 0 0 440.6 64.3;" xml:space="preserve">
<style type="text/css">
	.st0{fill:#AF1F8E;}
	.st1{display:none;fill:none;}
</style>
<g>
	<path class="st0" d="M70.9,22.1c-14.1,0-20.4,2.7-20.4,21.1c0,18.2,5.7,20.9,20.9,20.9c9.2,0,15.8-1.1,18.2-1.6V50.9H75.3v4.2
		c-0.5,0.1-2.3,0.3-3.8,0.3c-4.9,0-5.9-1.7-6-9.6h24.6c0-0.7,0-4.5,0-5.2C90.1,25,86,22.1,70.9,22.1z M65.5,38.5
		c0.5-6.5,1.5-7.3,5.2-7.3c4,0,4.9,0.8,5.1,7.3H65.5z"/>
	<path class="st0" d="M236.7,52.7c-2.7,0-3.7-0.8-3.7-4c0-5.4,0-13.6,0-13.6h8.8V23.2H233v-12l-14.9,1.7v10.3h-5.1v11.9h5.1
		c0,0,0,14.6,0,17c0,9.3,3.2,11.9,12.6,11.9c4.3,0,10.2-0.5,12.1-0.8l-0.7-10.9C240.3,52.5,237.7,52.7,236.7,52.7z"/>
	<polygon class="st0" points="358.3,23.2 338.3,23.2 338.3,35.1 343.5,35.1 343.5,51.9 338.4,51.9 338.4,63.6 363.3,63.6 
		363.3,51.9 358.3,51.9 	"/>
	<rect x="343.5" y="4.2" class="st0" width="14.8" height="14.3"/>
	<rect x="190.2" y="4.2" class="st0" width="14.8" height="14.3"/>
	<polygon class="st0" points="205,23.2 185,23.2 185,35.1 190.2,35.1 190.2,51.9 185.1,51.9 185.1,63.6 210,63.6 210,51.9 205,51.9 
			"/>
	<path class="st0" d="M407.4,34.3c0-8.3-3.4-12.1-18.3-12.1c-7,0-14.2,0.6-18.7,1.2v11.7h14.4v-3.7c1.1-0.1,3.3-0.1,4.3-0.1
		c2.7,0,3.4,0.5,3.4,2.2c0,0.4,0,4.4,0,4.8c-11.4,0-17.7,0.3-20.8,2.1c-2.8,1.7-3.6,4.8-3.6,9.6c0,9.6,3.8,14.3,9.7,14.3
		c5.5,0,11.3-1.9,15.4-4.4l1.2,3.8H411V51.9h-3.6V34.3z M392.4,53.7c-1.4,0.3-3.8,0.7-5.8,0.7c-2.3,0-3.3-1.4-3.3-4.6
		c0-2,0.2-3.4,1.5-3.8c1.6-0.5,3.5-0.7,7.6-0.7V53.7z"/>
	<polygon class="st0" points="435.6,51.9 435.6,1.3 415.4,1.3 415.4,13.2 421.3,13.2 421.3,51.9 416.5,51.9 416.5,63.6 440.6,63.6 
		440.6,51.9 	"/>
	<path class="st0" d="M268.7,22.2c-15.3,0-20.6,3.2-20.6,21.1c0,17.9,5.2,21,20.5,21c15.3,0,20.6-3.3,20.6-21.2
		C289.1,25.2,283.9,22.2,268.7,22.2z M268.7,54.7c-4.9,0-5.7-2.1-5.7-11.5c0-9.4,0.7-11.1,5.6-11.1c4.8,0,5.6,1.8,5.6,11.2
		S273.5,54.7,268.7,54.7z"/>
	<path class="st0" d="M312.3,23.2h-17.4v11.9h4.7v16.8h-4.9v11.7h24.9V51.9h-5.1V35.8c1-0.2,3.7-0.5,5.2-0.6v4.5h13.6V22.1
		c-7,0.3-13.8,2.5-19.6,5.6L312.3,23.2z"/>
	<path class="st0" d="M159,23.2h-17.4v11.9h4.7v16.8h-4.9v11.7h24.9V51.9H161V35.8c1-0.2,3.7-0.5,5.2-0.6v4.5h13.6V22.1
		c-7,0.3-13.8,2.5-19.6,5.6L159,23.2z"/>
	<path class="st0" d="M115.3,23.2H97.9v11.9h4.7v16.8h-4.9v11.7h24.9V51.9h-5.1V35.8c1-0.2,3.7-0.5,5.2-0.6v4.5h13.6V22.1
		c-7,0.3-13.8,2.5-19.6,5.6L115.3,23.2z"/>
	<polygon class="st0" points="60,17.9 60,0 0,0 0,17.9 13.5,17.9 13.5,12 22.6,12 22.6,51.9 16.6,51.9 16.6,63.6 43.6,63.6 
		43.6,51.9 37.4,51.9 37.4,12 46.5,12 46.5,17.9 	"/>
</g>
<rect x="-58.8" y="-63.6" class="st1" width="559.4" height="190.8"/>
</svg>
